<svg id="Layer_1" data-name="Layer 1" xmlns="http://www.w3.org/2000/svg" width="550" height="550" viewBox="0 0 550 550"><defs><style>.cls-1{fill:#f7b5d2;}.cls-2{fill:#fbe0ec;}.cls-3{fill:#fff;}</style></defs><title>icons</title><path class="cls-1" d="M275,532.42A257.42,257.42,0,0,1,93,93,257.42,257.42,0,1,1,457,457,255.73,255.73,0,0,1,275,532.42Z"/><path class="cls-2" d="M275,27.58A247.49,247.49,0,0,1,371.3,503,247.48,247.48,0,0,1,178.7,47,245.79,245.79,0,0,1,275,27.58m0-20C127.31,7.58,7.58,127.31,7.58,275S127.31,542.42,275,542.42,542.42,422.69,542.42,275,422.69,7.58,275,7.58Z"/><path class="cls-3" d="M426.17,156.78A32.28,32.28,0,0,0,393.93,189v55.59a32.26,32.26,0,0,0-33.54,7.59L302.2,310.39a53.38,53.38,0,0,0-15.74,38V395A33.33,33.33,0,0,0,275,401.78,33.33,33.33,0,0,0,263.54,395V348.39a53.38,53.38,0,0,0-15.74-38L189.61,252.2a32.26,32.26,0,0,0-33.54-7.59V189a32.24,32.24,0,1,0-64.48,0V290.19a53.39,53.39,0,0,0,15.73,38L137,357.81a64.76,64.76,0,0,1,18.53,37.47,32.29,32.29,0,0,0-20.91,30.18v22.21a10.74,10.74,0,0,0,10.75,10.74H404.68a10.75,10.75,0,0,0,10.75-10.74V425.46a32.29,32.29,0,0,0-20.91-30.18,64.76,64.76,0,0,1,18.53-37.47l29.62-29.63a53.36,53.36,0,0,0,15.74-38V189a32.28,32.28,0,0,0-32.24-32.24Zm-274,185.84L122.52,313a32,32,0,0,1-9.44-22.8V189a10.75,10.75,0,0,1,21.49,0v86A32.06,32.06,0,0,0,144,297.8l43.89,43.88a10.74,10.74,0,1,0,15.19-15.2L159.22,282.6a10.74,10.74,0,0,1,15.19-15.2l58.19,58.19a32,32,0,0,1,9.44,22.8v44.83H176.91a86.13,86.13,0,0,0-24.76-50.6Zm112.1,94.3H156.07V425.46a10.76,10.76,0,0,1,10.74-10.75h86c6.11,0,11.46,5,11.46,10.75Zm129.68,0H285.75V425.46c0-5.73,5.35-10.75,11.46-10.75h86a10.76,10.76,0,0,1,10.74,10.75Zm43-146.73a32,32,0,0,1-9.45,22.8l-29.62,29.63a86.08,86.08,0,0,0-24.76,50.6H308V348.39a32,32,0,0,1,9.44-22.8l58.19-58.19a10.74,10.74,0,0,1,15.19,15.19l-43.89,43.89a10.75,10.75,0,0,0,15.2,15.2L406,297.8a32.06,32.06,0,0,0,9.45-22.8V189a10.75,10.75,0,0,1,21.49,0Zm0,0"/><path class="cls-3" d="M318,135.67V133c0-22.86-19.29-41.45-43-41.45S232,110.18,232,133v2.63a41,41,0,0,0,12.78,29.5l14.62,13.93L235.35,202a10.74,10.74,0,0,0,14.82,15.56L275,193.94l24.83,23.64A10.74,10.74,0,1,0,314.65,202L290.58,179.1l14.63-13.93A41,41,0,0,0,318,135.67Zm-21.5,0a19.17,19.17,0,0,1-6.1,13.93L275,164.26,259.61,149.6a19.17,19.17,0,0,1-6.1-13.93V133c0-11,9.64-20,21.49-20s21.49,9,21.49,20Zm0,0"/></svg>