<svg id="Layer_1" data-name="Layer 1" xmlns="http://www.w3.org/2000/svg" width="550" height="550" viewBox="0 0 550 550"><defs><style>.cls-1{fill:#f7b5d2;}.cls-2{fill:#fbe0ec;}.cls-3{fill:#fff;}</style></defs><title>icons</title><path class="cls-1" d="M275,532.42A257.42,257.42,0,0,1,93,93,257.42,257.42,0,1,1,457,457,255.73,255.73,0,0,1,275,532.42Z"/><path class="cls-2" d="M275,27.58A247.49,247.49,0,0,1,371.3,503,247.48,247.48,0,0,1,178.7,47,245.79,245.79,0,0,1,275,27.58m0-20C127.31,7.58,7.58,127.31,7.58,275S127.31,542.42,275,542.42,542.42,422.69,542.42,275,422.69,7.58,275,7.58Z"/><path class="cls-3" d="M411.06,148.61h-9.67v-9.67a29,29,0,0,0-58,0v9.67H304v-9.67a29,29,0,1,0-58,0v9.67H206.65v-9.67a29,29,0,0,0-58,0v9.67h-9.67a29.06,29.06,0,0,0-29,29V411.06a29.06,29.06,0,0,0,29,29H411.06a29.06,29.06,0,0,0,29-29V177.63a29.06,29.06,0,0,0-29-29Zm-48.36-9.67a9.67,9.67,0,0,1,19.34,0v9.67H362.7Zm-97.37,0a9.67,9.67,0,0,1,19.34,0v9.67H265.33Zm-97.37,0a9.67,9.67,0,0,1,19.34,0v9.67H168ZM420.73,411.06a9.68,9.68,0,0,1-9.67,9.67H138.94a9.68,9.68,0,0,1-9.67-9.67V246H420.73Zm0-184.42H129.27v-49a9.68,9.68,0,0,1,9.67-9.67H187.3v9.67a9.68,9.68,0,0,1-9.67,9.67,9.68,9.68,0,0,0,0,19.35,29.06,29.06,0,0,0,29-29V168h78v9.67A9.68,9.68,0,0,1,275,187.3a9.68,9.68,0,0,0,0,19.35,29.06,29.06,0,0,0,29-29V168h78v9.67a9.68,9.68,0,0,1-9.67,9.67,9.68,9.68,0,0,0,0,19.35,29.06,29.06,0,0,0,29-29V168h9.67a9.68,9.68,0,0,1,9.67,9.67Zm0,0"/><path class="cls-3" d="M313.69,305.65v-2.37c0-20.57-17.36-37.31-38.69-37.31s-38.69,16.74-38.69,37.31v2.37a36.9,36.9,0,0,0,11.5,26.55L261,344.73l-21.66,20.63a9.67,9.67,0,0,0,13.34,14L275,358.09l22.34,21.28a9.68,9.68,0,1,0,13.35-14L289,344.73l13.17-12.53a36.9,36.9,0,0,0,11.5-26.55Zm-19.35,0a17.25,17.25,0,0,1-5.49,12.54L275,331.37l-13.85-13.18a17.25,17.25,0,0,1-5.49-12.54v-2.37c0-9.9,8.67-18,19.34-18s19.34,8.06,19.34,18Zm0,0"/></svg>